<svg id="Layer_1" data-name="Layer 1" xmlns="http://www.w3.org/2000/svg" viewBox="0 0 760 752"><defs><style>.cls-1{fill:#3a5446;}.cls-2{fill:#f99e6b;}</style></defs><path class="cls-1" d="M619.49,699.52c-7.83-7-9-14.59-3.45-23.62,4.05-6.58,11.09-16.63,15.54-22.93l10.32-1.82c120.93,112.23,276.28-23.66,211.86-153.88-44.91-90.79-161.81-102.73-224-20.37-65.66,87-132.56,211.33-203.85,250.77C370,758.61,256.49,763.13,190.48,664c-60.69-91.15-28.23-221.22,63.62-272.57,98-54.78,183.25,2.94,204.53,22.31,10.65,9.7,11.05,18.8,3.72,29.82-3,4.43-11.8,16.33-14.8,20.72l-11.49.21c-72.84-71.32-158.48-37.1-193.56,5.16-34.27,41.29-39.08,97.84-18.05,147.57,32.5,76.85,137.73,99,199.53,46.65,40.7-34.44,86.27-108,114.88-147.75,16.79-23.3,83-159.62,219.13-146.25C890.58,388.07,962.25,535.28,892.2,657,857.54,717.29,739.72,800.86,619.49,699.52Z" transform="translate(-159.54 -151.91)"/><path class="cls-1" d="M542.41,152.07c95.52,1.24,169.7,80.52,177.73,169.63l-5,10.93c-7.34,1.69-29,6-36.27,8.17l-10.65-5.35C667.7,259.15,605.13,209,544.64,206.3c-56.41-2.21-130.1,40.78-134,128.61l-9.55,7.28-35.83-9.1-6.62-8.49C375.2,173.54,509.58,149.68,542.41,152.07Z" transform="translate(-159.54 -151.91)"/><path class="cls-1" d="M413.93,903.88l-4.87-14c38.37-31.74,95.62-98.47,100.29-194.39l7.27-6.74,38.43,0,7.27,7.32c-9.93,74.28-26.87,131.3-87.77,202.27-2.8,2.88-5.61,4.73-11.64,5S413.93,903.88,413.93,903.88Z" transform="translate(-159.54 -151.91)"/><path class="cls-1" d="M630.52,903.69c-34.31,0-26.52,4.1-42.31-23.15-10.06-15-20.3-31.56-29.91-46.9-3.77-6.06-3.25-13.24,0-20.93,6.75-15.2,13.24-39.19,13.24-39.19h11.75s39.27,73.47,77.12,118.9l-6.2,10.78S636.74,903.69,630.52,903.69Z" transform="translate(-159.54 -151.91)"/><path class="cls-2" d="M257.4,533.4a82.83,82.83,0,0,1,11.77-42.16c16.47-26.83,54.39-48.4,97.5-24.11a94.12,94.12,0,0,1-9.06,37.39C345.39,530.41,306.5,560.16,257.4,533.4Z" transform="translate(-159.54 -151.91)"/><path class="cls-2" d="M419.78,610.78A77.23,77.23,0,0,1,385,585.84c-19.3-24.71-27-68.89,8.83-103.67,0,0,16.23,5.38,31.28,20.76C444.89,523.16,459.77,570.88,419.78,610.78Z" transform="translate(-159.54 -151.91)"/></svg>